name analog
datacolumns 19
datarows 42
range 0.2225 0.243
endheader
time	ground_force_vx	ground_force_vy	ground_force_vz	ground_force_px	ground_force_py	ground_force_pz	l_ground_force_vx	l_ground_force_vy	l_ground_force_vz	l_ground_force_px	l_ground_force_py	l_ground_force_pz	ground_torque_x	ground_torque_y	ground_torque_z	l_ground_torque_x	l_ground_torque_y	l_ground_torque_z
0.2225	-0.0	-0.0	-0.0	-6.688244819641113	9.800108909606934	-637.1365966796875	-0.0	-0.0	-0.0	-0.0	-0.0	-0.0	-0.0	-0.0	-0.0	-0.0	-0.0	-0.0
0.223	-0.0	-0.0	-0.0	-6.42315673828125	9.445499420166016	-635.7391967773438	-0.0	-0.0	-0.0	-0.0	-0.0	-0.0	-0.0	-0.0	-0.0	-0.0	-0.0	-0.0
0.2235	-0.0	-0.0	-0.0	-5.888629913330078	9.182637214660645	-634.3198852539062	-0.0	-0.0	-0.0	-0.0	-0.0	-0.0	-0.0	-0.0	-0.0	-0.0	-0.0	-0.0
0.224	-0.0	-0.0	-0.0	-5.619581699371338	9.1797513961792	-635.3653564453125	-0.0	-0.0	-0.0	-0.0	-0.0	-0.0	-0.0	-0.0	-0.0	-0.0	-0.0	-0.0
0.2245	-0.0	-0.0	-0.0	-5.083175659179688	9.091300964355469	-631.1301879882812	-0.0	-0.0	-0.0	-0.0	-0.0	-0.0	-0.0	-0.0	-0.0	-0.0	-0.0	-0.0
0.225	-0.0	-0.0	-0.0	-4.370747089385986	9.355854034423828	-629.7063598632812	-0.0	-0.0	-0.0	-0.0	-0.0	-0.0	-0.0	-0.0	-0.0	-0.0	-0.0	-0.0
0.2255	-0.0	-0.0	-0.0	-2.945483684539795	9.091300964355469	-627.6027221679688	-0.0	-0.0	-0.0	-0.0	-0.0	-0.0	-0.0	-0.0	-0.0	-0.0	-0.0	-0.0
0.226	-0.0	-0.0	-0.0	-1.7859680652618408	9.448700904846191	-627.5989379882812	-0.0	-0.0	-0.0	-0.0	-0.0	-0.0	-0.0	-0.0	-0.0	-0.0	-0.0	-0.0
0.2265	-0.0	-0.0	-0.0	-1.5149768590927124	9.713613510131836	-626.8975830078125	-0.0	-0.0	-0.0	-0.0	-0.0	-0.0	-0.0	-0.0	-0.0	-0.0	-0.0	-0.0
0.227	-0.0	-0.0	-0.0	-1.7812620401382446	9.805326461791992	-625.8309326171875	-0.0	-0.0	-0.0	-0.0	-0.0	-0.0	-0.0	-0.0	-0.0	-0.0	-0.0	-0.0
0.2275	-0.0	-0.0	-0.0	-1.87370765209198	9.981171607971191	-624.7730102539062	-0.0	-0.0	-0.0	-0.0	-0.0	-0.0	-0.0	-0.0	-0.0	-0.0	-0.0	-0.0
0.228	-0.0	-0.0	-0.0	-1.7849040031433103	9.716137886047363	-623.0093994140625	-0.0	-0.0	-0.0	-0.0	-0.0	-0.0	-0.0	-0.0	-0.0	-0.0	-0.0	-0.0
0.2285	-0.0	-0.0	-0.0	-2.0521585941314697	9.358850479125977	-623.0093994140625	-0.0	-0.0	-0.0	-0.0	-0.0	-0.0	-0.0	-0.0	-0.0	-0.0	-0.0	-0.0
0.229	-0.0	-0.0	-0.0	-2.408330202102661	8.912687301635742	-622.305419921875	-0.0	-0.0	-0.0	-0.0	-0.0	-0.0	-0.0	-0.0	-0.0	-0.0	-0.0	-0.0
0.2295	-0.0	-0.0	-0.0	-2.587346315383911	8.467629432678223	-623.3623046875	-0.0	-0.0	-0.0	-0.0	-0.0	-0.0	-0.0	-0.0	-0.0	-0.0	-0.0	-0.0
0.23	-0.0	-0.0	-0.0	-2.676340341567993	8.823822975158691	-622.6561279296875	-0.0	-0.0	-0.0	-0.0	-0.0	-0.0	-0.0	-0.0	-0.0	-0.0	-0.0	-0.0
0.2305	-0.0	-0.0	-0.0	-3.300527811050415	7.843475341796875	-626.5408325195312	-0.0	-0.0	-0.0	-0.0	-0.0	-0.0	-0.0	-0.0	-0.0	-0.0	-0.0	-0.0
0.231	-0.0	-0.0	-0.0	-2.587104797363281	7.575584411621094	-625.8353271484375	-0.0	-0.0	-0.0	-0.0	-0.0	-0.0	-0.0	-0.0	-0.0	-0.0	-0.0	-0.0
0.2315	-0.0	-0.0	-0.0	-2.854736328125	6.952005863189697	-625.8361206054688	-0.0	-0.0	-0.0	-0.0	-0.0	-0.0	-0.0	-0.0	-0.0	-0.0	-0.0	-0.0
0.232	-0.0	-0.0	-0.0	-2.9435043334960938	7.574758052825928	-628.6567993164062	-0.0	-0.0	-0.0	-0.0	-0.0	-0.0	-0.0	-0.0	-0.0	-0.0	-0.0	-0.0
0.2325	-0.0	-0.0	-0.0	-3.744488716125488	7.308692932128906	-628.30712890625	-0.0	-0.0	-0.0	-0.0	-0.0	-0.0	-0.0	-0.0	-0.0	-0.0	-0.0	-0.0
0.233	-0.0	-0.0	-0.0	-3.746506929397583	7.574747085571289	-629.0094604492188	-0.0	-0.0	-0.0	-0.0	-0.0	-0.0	-0.0	-0.0	-0.0	-0.0	-0.0	-0.0
0.2335	-0.0	-0.0	-0.0	-3.7468414306640634	7.7523908615112305	-627.6022338867188	-0.0	-0.0	-0.0	-0.0	-0.0	-0.0	-0.0	-0.0	-0.0	-0.0	-0.0	-0.0
0.234	-0.0	-0.0	-0.0	-4.282568454742432	8.199533462524414	-627.251220703125	-0.0	-0.0	-0.0	-0.0	-0.0	-0.0	-0.0	-0.0	-0.0	-0.0	-0.0	-0.0
0.23450000000000001	-0.0	-0.0	-0.0	-3.5679168701171875	8.111370086669922	-627.9459838867188	-0.0	-0.0	-0.0	-0.0	-0.0	-0.0	-0.0	-0.0	-0.0	-0.0	-0.0	-0.0
0.23500000000000001	-0.0	-0.0	-0.0	-2.8593478202819824	7.93663740158081	-626.8921508789062	-0.0	-0.0	-0.0	-0.0	-0.0	-0.0	-0.0	-0.0	-0.0	-0.0	-0.0	-0.0
0.23550000000000001	-0.0	-0.0	-0.0	-2.1392006874084477	8.733546257019043	-623.0216064453125	-0.0	-0.0	-0.0	-0.0	-0.0	-0.0	-0.0	-0.0	-0.0	-0.0	-0.0	-0.0
0.23600000000000002	-0.0	-0.0	-0.0	-1.4273681640625	8.5565185546875	-623.3572387695312	-0.0	-0.0	-0.0	-0.0	-0.0	-0.0	-0.0	-0.0	-0.0	-0.0	-0.0	-0.0
0.23650000000000002	-0.0	-0.0	-0.0	-0.3560963869094848	8.115336418151855	-622.2942504882812	-0.0	-0.0	-0.0	-0.0	-0.0	-0.0	-0.0	-0.0	-0.0	-0.0	-0.0	-0.0
0.23700000000000002	-0.0	-0.0	-0.0	0.0023581981658935	8.196855545043945	-620.5557861328125	-0.0	-0.0	-0.0	-0.0	-0.0	-0.0	-0.0	-0.0	-0.0	-0.0	-0.0	-0.0
0.23750000000000002	-0.0	-0.0	-0.0	0.9821584820747375	7.750134468078613	-620.8870239257812	-0.0	-0.0	-0.0	-0.0	-0.0	-0.0	-0.0	-0.0	-0.0	-0.0	-0.0	-0.0
0.23800000000000002	-0.0	-0.0	-0.0	1.5174942016601562	7.485124111175537	-621.5894165039062	-0.0	-0.0	-0.0	-0.0	-0.0	-0.0	-0.0	-0.0	-0.0	-0.0	-0.0	-0.0
0.23850000000000002	-0.0	-0.0	-0.0	1.5194445848464966	6.863040924072266	-619.830810546875	-0.0	-0.0	-0.0	-0.0	-0.0	-0.0	-0.0	-0.0	-0.0	-0.0	-0.0	-0.0
0.23900000000000002	-0.0	-0.0	-0.0	1.4263399839401243	6.593595027923584	-620.1798706054688	-0.0	-0.0	-0.0	-0.0	-0.0	-0.0	-0.0	-0.0	-0.0	-0.0	-0.0	-0.0
0.23950000000000002	-0.0	-0.0	-0.0	1.3402953147888184	6.2412638664245605	-620.1881713867188	-0.0	-0.0	-0.0	-0.0	-0.0	-0.0	-0.0	-0.0	-0.0	-0.0	-0.0	-0.0
0.24	-0.0	-0.0	-0.0	1.246698260307312	5.441448211669922	-621.9542846679688	-0.0	-0.0	-0.0	-0.0	-0.0	-0.0	-0.0	-0.0	-0.0	-0.0	-0.0	-0.0
0.2405	-0.0	-0.0	-0.0	0.4484471082687378	6.237931728363037	-620.1981811523438	-0.0	-0.0	-0.0	-0.0	-0.0	-0.0	-0.0	-0.0	-0.0	-0.0	-0.0	-0.0
0.241	-0.0	-0.0	-0.0	0.1821339726448059	6.234181880950928	-622.273681640625	-0.0	-0.0	-0.0	-0.0	-0.0	-0.0	-0.0	-0.0	-0.0	-0.0	-0.0	-0.0
0.2415	-0.0	-0.0	-0.0	-0.1810097843408584	6.152584075927734	-618.08544921875	-0.0	-0.0	-0.0	-0.0	-0.0	-0.0	-0.0	-0.0	-0.0	-0.0	-0.0	-0.0
0.242	-0.0	-0.0	-0.0	-1.5070096254348757	6.330989837646484	-619.07568359375	-0.0	-0.0	-0.0	-0.0	-0.0	-0.0	-0.0	-0.0	-0.0	-0.0	-0.0	-0.0
0.2425	-0.0	-0.0	-0.0	-1.0691193342208862	6.856013298034668	-615.5982055664062	-0.0	-0.0	-0.0	-0.0	-0.0	-0.0	-0.0	-0.0	-0.0	-0.0	-0.0	-0.0
0.243	-0.0	-0.0	-0.0	-1.1493791341781616	6.423302173614502	-617.3116455078125	-0.0	-0.0	-0.0	-0.0	-0.0	-0.0	-0.0	-0.0	-0.0	-0.0	-0.0	-0.0
